<?xml version="1.0" encoding="UTF-8" standalone="no"?>
<!DOCTYPE svg PUBLIC "-//W3C//DTD SVG 1.1//EN" "http://www.w3.org/Graphics/SVG/1.1/DTD/svg11.dtd">
<svg width="100%" height="100%" viewBox="0 0 25 16" version="1.1" xmlns="http://www.w3.org/2000/svg" xmlns:xlink="http://www.w3.org/1999/xlink" xml:space="preserve" xmlns:serif="http://www.serif.com/" style="fill-rule:evenodd;clip-rule:evenodd;stroke-linejoin:round;stroke-miterlimit:2;">
    <g transform="matrix(1,0,0,1,9.97645,0)">
        <path d="M12.651,8C12.651,8 4.703,2.965 3.076,1.998C2.998,1.951 2.872,2.105 2.888,2.194C3.075,3.195 4.195,8 4.195,8C4.195,8 3.012,12.955 2.844,14.002C2.821,14.147 3.059,14.358 3.184,14.281C4.818,13.281 12.651,8 12.651,8Z" style="fill:rgb(240,230,83);"/>
        <path d="M13.21,8.829C13.21,8.829 5.347,14.13 3.706,15.134C3.368,15.341 2.897,15.369 2.476,15.107C2.039,14.836 1.791,14.249 1.857,13.843C2.005,12.92 2.932,8.992 3.168,7.998C2.942,7.025 2.069,3.253 1.905,2.377C1.843,2.043 2.009,1.521 2.332,1.252C2.737,0.916 3.22,0.92 3.587,1.138C5.218,2.108 13.186,7.155 13.186,7.155C13.471,7.336 13.646,7.648 13.651,7.986C13.655,8.323 13.49,8.64 13.21,8.829ZM12.651,8C12.651,8 4.703,2.965 3.076,1.998C2.998,1.951 2.872,2.105 2.888,2.194C3.075,3.195 4.195,8 4.195,8C4.195,8 3.012,12.955 2.844,14.002C2.821,14.147 3.059,14.358 3.184,14.281C4.818,13.281 12.651,8 12.651,8Z"/>
    </g>
    <g transform="matrix(1,0,0,1,4.43466,0)">
        <path d="M12.651,8C12.651,8 4.703,2.965 3.076,1.998C2.998,1.951 2.872,2.105 2.888,2.194C3.075,3.195 4.195,8 4.195,8C4.195,8 3.012,12.955 2.844,14.002C2.821,14.147 3.059,14.358 3.184,14.281C4.818,13.281 12.651,8 12.651,8Z" style="fill:rgb(240,230,83);"/>
        <path d="M13.21,8.829C13.21,8.829 5.347,14.13 3.706,15.134C3.368,15.341 2.897,15.369 2.476,15.107C2.039,14.836 1.791,14.249 1.857,13.843C2.005,12.92 2.932,8.992 3.168,7.998C2.942,7.025 2.069,3.253 1.905,2.377C1.843,2.043 2.009,1.521 2.332,1.252C2.737,0.916 3.22,0.92 3.587,1.138C5.218,2.108 13.186,7.155 13.186,7.155C13.471,7.336 13.646,7.648 13.651,7.986C13.655,8.323 13.49,8.64 13.21,8.829ZM12.651,8C12.651,8 4.703,2.965 3.076,1.998C2.998,1.951 2.872,2.105 2.888,2.194C3.075,3.195 4.195,8 4.195,8C4.195,8 3.012,12.955 2.844,14.002C2.821,14.147 3.059,14.358 3.184,14.281C4.818,13.281 12.651,8 12.651,8Z"/>
    </g>
    <g transform="matrix(1,0,0,1,-0.469499,0)">
        <path d="M12.651,8C12.651,8 4.703,2.965 3.076,1.998C2.998,1.951 2.872,2.105 2.888,2.194C3.075,3.195 4.195,8 4.195,8C4.195,8 3.012,12.955 2.844,14.002C2.821,14.147 3.059,14.358 3.184,14.281C4.818,13.281 12.651,8 12.651,8Z" style="fill:rgb(240,230,83);"/>
        <path d="M13.21,8.829C13.21,8.829 5.347,14.13 3.706,15.134C3.368,15.341 2.897,15.369 2.476,15.107C2.039,14.836 1.791,14.249 1.857,13.843C2.005,12.92 2.932,8.992 3.168,7.998C2.942,7.025 2.069,3.253 1.905,2.377C1.843,2.043 2.009,1.521 2.332,1.252C2.737,0.916 3.22,0.92 3.587,1.138C5.218,2.108 13.186,7.155 13.186,7.155C13.471,7.336 13.646,7.648 13.651,7.986C13.655,8.323 13.49,8.64 13.21,8.829ZM12.651,8C12.651,8 4.703,2.965 3.076,1.998C2.998,1.951 2.872,2.105 2.888,2.194C3.075,3.195 4.195,8 4.195,8C4.195,8 3.012,12.955 2.844,14.002C2.821,14.147 3.059,14.358 3.184,14.281C4.818,13.281 12.651,8 12.651,8Z"/>
    </g>
</svg>
