<?xml version="1.0" encoding="UTF-8" standalone="no"?>
<!DOCTYPE svg PUBLIC "-//W3C//DTD SVG 1.1//EN" "http://www.w3.org/Graphics/SVG/1.1/DTD/svg11.dtd">
<svg width="100%" height="100%" viewBox="0 0 20 16" version="1.1" xmlns="http://www.w3.org/2000/svg" xmlns:xlink="http://www.w3.org/1999/xlink" xml:space="preserve" xmlns:serif="http://www.serif.com/" style="fill-rule:evenodd;clip-rule:evenodd;stroke-linejoin:round;stroke-miterlimit:2;">
    <g transform="matrix(1,0,0,1,3,0)">
        <path d="M15.439,8.706C15.83,8.316 15.83,7.681 15.439,7.291C15.439,7.291 10.485,2.058 9.933,2.058C9.38,2.058 8.932,2.507 8.932,3.059L8.953,7L-0.634,7C-1.188,7 -1.634,7.447 -1.634,8C-1.634,8.553 -1.188,9 -0.634,9L8.95,9L8.993,12.941C8.993,13.493 9.442,13.942 9.994,13.942C10.546,13.942 15.442,8.709 15.442,8.709L15.439,8.706Z" style="fill:rgb(28,221,112);fill-rule:nonzero;"/>
        <path d="M16.162,9.397L16.172,9.393C16.172,9.393 12.99,12.791 11.43,14.151C11.02,14.509 10.683,14.742 10.494,14.828C10.292,14.92 10.12,14.942 9.994,14.942C8.89,14.942 7.993,14.045 7.993,12.952C7.993,12.952 7.961,10 7.961,10L-0.634,10C-1.741,10 -2.634,9.106 -2.634,8C-2.634,6.894 -1.741,6 -0.634,6L7.948,6L7.932,3.065L7.932,3.059C7.932,1.955 8.829,1.058 9.933,1.058C10.058,1.058 10.23,1.08 10.431,1.171C10.621,1.257 10.959,1.489 11.371,1.845C12.903,3.168 15.991,6.42 16.147,6.584C16.921,7.36 16.926,8.615 16.162,9.397ZM15.667,9.612L15.446,9.703L15.442,9.709L15.667,9.612ZM15.439,8.706C15.83,8.316 15.83,7.681 15.439,7.291C15.439,7.291 10.485,2.058 9.933,2.058C9.38,2.058 8.932,2.507 8.932,3.059L8.953,7L-0.634,7C-1.188,7 -1.634,7.447 -1.634,8C-1.634,8.553 -1.188,9 -0.634,9L8.95,9L8.993,12.941C8.993,13.493 9.442,13.942 9.994,13.942C10.546,13.942 15.442,8.709 15.442,8.709L15.439,8.706Z"/>
    </g>
    <g transform="matrix(0.549753,0,0,0.519815,12.2713,4.67652)">
        <path d="M3.037,1.257L6.266,4.486L3.037,4.486L3.037,1.257Z"/>
    </g>
    <g transform="matrix(2.33314e-17,0.627309,-0.593147,-5.56035e-18,16.4617,7.10164)">
        <path d="M3.037,1.257L6.266,4.486L3.037,4.486L3.037,1.257Z"/>
    </g>
</svg>
